# xmcd CD database file
#
# Track frame offsets:
#	150
#	10922
#	22442
#	30962
#	43757
#	54077
#	65372
#	75767
#	85862
#	97757
#	107477
#	119072
#	133517
#	140912
#	151082
#	167477
#	177122
#	188942
#	199637
#	210707
#	224177
#	232922
#	240542
#	249962
#	262082
#
# Disc length: 3626 seconds
#
# Revision: 1
# Processed by: cddbd v1.5.2PL0 Copyright (c) Steve Scherf et al.
# Submitted via: CDex 1.51
#
DISCID=4d0e2819
DTITLE=Various Artist - Country Western CD 30  1958
DYEAR=2012
DGENRE=Country
TTITLE0=Marvin Rainwater-Nothin' Needs Nothin'
TTITLE1=Eddie Noace-Have Blues Will Travel
TTITLE2=Don Gibson-Blue Blue Day
TTITLE3=Ray Price-Invitation To The Blues
TTITLE4=Johnny Cash-The Ways Of A Woman In Love
TTITLE5=Ernest Tubb-Half A Mind-Stereo
TTITLE6=George Jones-Treasure Of Love
TTITLE7=Marty Robbins-Ain't I The Lucky One-Stereo
TTITLE8=Hank Locklin-It's A Little Bit More Like Heaven
TTITLE9=Johnny Horton-Got The Bull By The Horns-Stereo
TTITLE10=James O'Gwynn-Talk To Me Lonesome Heart
TTITLE11=Simon Crum (Ferlin Husky)-Country Music Is Here To Stay
TTITLE12=Marvin Rainwater-I Dig You Baby
TTITLE13=Kenny Rogers-That Crazy Feeling
TTITLE14=The Everly Brothers-I'm Here To Get My Baby Out Of Jail
TTITLE15=Bobby Pedrick Jr.-White Bucks And Saddle Shoes
TTITLE16=Don Gibson-Bad Bad Day
TTITLE17=Bobby Bare-Vampira
TTITLE18=Charlie Walker-Pick Me Up On Your Way Down-Stereo
TTITLE19=Ray Price-City Lights-Stereo
TTITLE20=Faron Young-Alone With You
TTITLE21=Johnny Cash-Come In Stranger
TTITLE22=Marvin Rainwater-Moanin' The Blues
TTITLE23=Kenny Rogers-Lonely
TTITLE24=Marty Robbins-Stairway Of Love-Stereo
EXTD=YEAR: 2012
EXTT0=
EXTT1=
EXTT2=
EXTT3=
EXTT4=
EXTT5=
EXTT6=
EXTT7=
EXTT8=
EXTT9=
EXTT10=
EXTT11=
EXTT12=
EXTT13=
EXTT14=
EXTT15=
EXTT16=
EXTT17=
EXTT18=
EXTT19=
EXTT20=
EXTT21=
EXTT22=
EXTT23=
EXTT24=
PLAYORDER=
